<svg width="198" height="38" viewBox="0 0 198 38" fill="none" xmlns="http://www.w3.org/2000/svg">
<path d="M30.3621 16.7175C29.2508 17.7919 28.6954 19.2863 28.8471 20.7941L28.821 20.7691C28.9769 22.5435 28.3108 24.2937 27.0005 25.5528C25.6901 26.812 23.8687 27.452 22.0222 27.3023L22.0483 27.3273C19.8125 27.1273 17.6863 28.2959 16.7322 30.2492C15.7781 32.2024 16.2009 34.5207 17.7893 36.0458C19.3778 37.5708 21.7908 37.975 23.8226 37.0564C25.8543 36.1378 27.0685 34.0936 26.8584 31.9454L26.8859 31.9704C26.7301 30.196 27.3961 28.4458 28.7065 27.1866C30.0168 25.9275 31.8382 25.2874 33.6848 25.4372L33.6572 25.4122C36.1144 25.6245 38.4008 24.1848 39.1791 21.9352C39.9574 19.6855 39.023 17.217 36.9227 15.9734C34.8223 14.7298 32.1076 15.0379 30.3665 16.7175H30.3621Z" fill="#5454D4"/>
<path d="M19.6773 24.0454L19.6498 24.0203C21.22 24.1724 22.7782 23.6388 23.8945 22.5669C25.0108 21.4951 25.5672 19.9981 25.4101 18.4892L25.4377 18.5143C25.2818 16.7399 25.9478 14.9897 27.2582 13.7305C28.5686 12.4714 30.3899 11.8313 32.2365 11.9811L32.2089 11.956C34.4449 12.1578 36.5724 10.9905 37.528 9.03756C38.4835 7.08462 38.062 4.76557 36.474 3.23961C34.886 1.71365 32.4726 1.30854 30.4403 2.22679C28.408 3.14504 27.1932 5.18941 27.4031 7.33799L27.3771 7.31155C27.5335 9.08608 26.8676 10.8366 25.5571 12.0959C24.2466 13.3551 22.4249 13.995 20.5783 13.8447L20.6043 13.8712C19.0342 13.7192 17.476 14.2527 16.3597 15.3246C15.2434 16.3964 14.687 17.8934 14.844 19.4023L14.8179 19.3772C14.9733 21.1515 14.3071 22.9014 12.9968 24.1604C11.6866 25.4195 9.86555 26.0597 8.01913 25.9104L8.0452 25.9355C5.80926 25.7337 3.68178 26.901 2.72619 28.854C1.77061 30.8069 2.19218 33.1259 3.78019 34.6519C5.3682 36.1779 7.78153 36.583 9.81386 35.6647C11.8462 34.7465 13.061 32.7021 12.851 30.5535L12.8785 30.5786C12.7227 28.8042 13.3887 27.054 14.6991 25.7948C16.0094 24.5356 17.8308 23.8956 19.6773 24.0454V24.0454Z" fill="#FF7143"/>
<path d="M9.97008 21.252C11.0816 20.1778 11.6365 18.6831 11.4837 17.1754L11.5112 17.2005C11.3552 15.4255 12.0216 13.6748 13.3327 12.4155C14.6437 11.1563 16.4659 10.5166 18.3129 10.6673L18.2854 10.6422C20.5205 10.8434 22.647 9.67621 23.602 7.72389C24.557 5.77158 24.1355 3.45344 22.548 1.92804C20.9606 0.402645 18.5482 -0.00243428 16.5165 0.915257C14.4849 1.83295 13.2702 3.87633 13.4796 6.02417L13.4535 5.99911C13.6094 7.77352 12.9433 9.52373 11.6329 10.7829C10.3226 12.042 8.50123 12.6821 6.65468 12.5323L6.68075 12.5574C4.22368 12.3456 1.93775 13.7857 1.15994 16.0353C0.382121 18.285 1.31673 20.7532 3.41714 21.9965C5.51754 23.2398 8.23203 22.9316 9.97297 21.252H9.97008Z" fill="#5454D4"/>
<path d="M54.8374 7.37012H59.1392V27.4861H54.8374V7.37012Z" fill="#19191B"/>
<path fill-rule="evenodd" clip-rule="evenodd" d="M66.2456 13.83C63.4068 14.9696 61.563 17.6414 61.5753 20.5978C61.5604 22.5363 62.3573 24.3992 63.7866 25.7672C65.216 27.1353 67.1578 27.8935 69.1751 27.8714C72.2516 27.8714 75.0247 26.089 76.1992 23.3565C77.3737 20.624 76.7179 17.4806 74.5381 15.3943C72.3582 13.308 69.0845 12.6905 66.2456 13.83ZM69.1139 17.5155C70.924 17.4834 72.423 18.8588 72.4731 20.5978C72.5219 21.4599 72.1934 22.3024 71.5669 22.9213C70.9404 23.5402 70.0732 23.8791 69.175 23.8561C67.3646 23.8562 65.8923 22.4544 65.8755 20.7148C65.8588 18.9752 67.3039 17.5476 69.1139 17.5155Z" fill="#19191B"/>
<path fill-rule="evenodd" clip-rule="evenodd" d="M93.9197 26.7915V13.7084L89.7324 13.7056V15.1114C88.7109 13.9103 87.1574 13.2457 85.545 13.3201C81.6119 13.4393 78.4878 16.5375 78.4878 20.3188C78.4878 24.1001 81.6119 27.1984 85.545 27.3176C87.1574 27.392 88.7109 26.7274 89.7324 25.5263V26.7859C89.8044 27.617 89.4795 28.4344 88.8493 29.0078C88.2191 29.5812 87.3519 29.8483 86.4923 29.7338C85.1325 29.8672 83.8295 29.1754 83.2232 27.9982L79.553 30.0372C80.9889 32.2854 83.6115 33.5744 86.3489 33.3776C90.1625 33.3776 93.9197 31.4207 93.9197 26.7915ZM87.6897 17.1367C88.9838 17.6974 89.793 18.958 89.7338 20.3209C89.7606 21.2009 89.3989 22.0508 88.7381 22.6606C88.0772 23.2705 87.1789 23.5834 86.2649 23.5221C84.8453 23.5237 83.5674 22.6958 83.0366 21.4306C82.5059 20.1654 82.829 18.7173 83.8529 17.7724C84.8768 16.8276 86.3957 16.5759 87.6897 17.1367Z" fill="#19191B"/>
<path fill-rule="evenodd" clip-rule="evenodd" d="M101.026 13.83C98.1874 14.9696 96.3436 17.6414 96.3559 20.5978C96.341 22.5363 97.1379 24.3992 98.5673 25.7672C99.9966 27.1353 101.938 27.8935 103.956 27.8714C107.032 27.8714 109.805 26.089 110.98 23.3565C112.154 20.624 111.499 17.4806 109.319 15.3943C107.139 13.308 103.865 12.6905 101.026 13.83ZM103.895 17.5155C105.705 17.4834 107.204 18.8588 107.254 20.5978C107.303 21.4599 106.974 22.3024 106.348 22.9213C105.721 23.5402 104.854 23.8791 103.956 23.8561C102.145 23.8562 100.673 22.4544 100.656 20.7148C100.639 18.9752 102.084 17.5476 103.895 17.5155Z" fill="#19191B"/>
<path fill-rule="evenodd" clip-rule="evenodd" d="M115.155 7.72451C114.19 8.1084 113.562 9.01278 113.562 10.0159C113.576 11.3801 114.723 12.4826 116.143 12.4962C117.187 12.4962 118.128 11.8919 118.527 10.9651C118.927 10.0383 118.706 8.97149 117.968 8.26216C117.229 7.55282 116.119 7.34062 115.155 7.72451ZM118.299 13.7084H113.996L113.99 27.4874H118.299V13.7084Z" fill="#19191B"/>
<path fill-rule="evenodd" clip-rule="evenodd" d="M135.021 25.6041C136.307 24.2389 136.974 22.437 136.874 20.5978C136.975 18.7582 136.308 16.9558 135.022 15.5902C133.735 14.2245 131.935 13.4084 130.02 13.3228C128.406 13.2382 126.838 13.8549 125.748 15.0027V13.7083H121.447V32.9975H125.748V26.1901C126.837 27.3387 128.405 27.9561 130.02 27.8714C131.934 27.7854 133.734 26.9694 135.021 25.6041ZM129.103 17.4012C130.977 17.3711 132.525 18.798 132.572 20.5978C132.637 21.4922 132.301 22.3708 131.65 23.0127C130.999 23.6546 130.093 23.9989 129.161 23.959C127.287 23.9592 125.764 22.5078 125.748 20.7075C125.732 18.9072 127.23 17.4314 129.103 17.4012Z" fill="#19191B"/>
<path d="M150.148 23.3523C150.148 26.5215 147.282 27.8715 144.185 27.8715C141.625 28.0944 139.182 26.7952 138.019 24.5924L141.746 22.5534C142.057 23.5789 143.071 24.2564 144.179 24.179C145.211 24.179 145.728 23.8756 145.728 23.3258C145.728 21.8088 138.673 22.6091 138.673 17.8421C138.673 14.8371 141.312 13.3229 144.294 13.3229C146.577 13.2534 148.719 14.3828 149.885 16.2707L146.214 18.1719C145.885 17.4341 145.129 16.9568 144.294 16.9597C143.548 16.9597 143.089 17.238 143.089 17.7307C143.094 19.3021 150.148 18.2541 150.148 23.3523Z" fill="#19191B"/>
<path d="M165.862 13.7084V27.4874H161.56V26.1916C160.554 27.3514 159.029 27.9768 157.461 27.8729C154.564 27.8729 152.102 25.8896 152.102 22.1665V13.7084H156.404V21.561C156.331 22.2252 156.566 22.8866 157.047 23.3692C157.527 23.8518 158.204 24.1068 158.898 24.0663C160.475 24.0663 161.564 23.1853 161.564 21.2284V13.7125L165.862 13.7084Z" fill="#19191B"/>
<path d="M190.528 19.0265V27.486H186.227V19.3842C186.227 18.0063 185.539 17.1253 184.163 17.1253C182.729 17.1253 181.925 18.0898 181.925 19.7155V27.486H177.625V19.3842C177.625 18.0063 176.937 17.1253 175.559 17.1253C174.125 17.1253 173.323 18.0898 173.323 19.7155V27.486H169.021V13.707H173.323V14.9736C174.229 13.8318 175.676 13.2097 177.165 13.3215C178.663 13.2511 180.089 13.9412 180.921 15.1392C181.89 13.8868 183.46 13.2004 185.079 13.3215C188.372 13.3229 190.528 15.5818 190.528 19.0265Z" fill="#19191B"/>
<path d="M194.167 13.6235C195.93 13.6235 197.359 12.2501 197.359 10.556C197.359 8.8618 195.93 7.4884 194.167 7.4884C192.404 7.4884 190.974 8.8618 190.974 10.556C190.974 12.2501 192.404 13.6235 194.167 13.6235Z" fill="#19191B"/>
</svg>
